<svg width="97" height="97" viewBox="0 0 97 97" fill="none" xmlns="http://www.w3.org/2000/svg">
<path d="M48.26 4C48.5829 4 49.5815 4.21593 51.085 6.25051C52.5334 8.21147 53.9953 11.2892 55.2888 15.4284C57.8626 23.6641 59.5125 35.2736 59.5125 48.26C59.5125 61.2465 57.8626 72.856 55.2888 81.0918C53.9953 85.2307 52.5334 88.3086 51.085 90.2695C49.5815 92.3039 48.5829 92.52 48.26 92.52C47.9371 92.52 46.9385 92.3039 45.435 90.2695C43.9866 88.3086 42.5247 85.2307 41.2312 81.0918C38.6574 72.856 37.0075 61.2465 37.0075 48.26C37.0075 35.2736 38.6574 23.6641 41.2312 15.4284C42.5247 11.2892 43.9866 8.21147 45.435 6.25051C46.9385 4.21593 47.9371 4 48.26 4Z" stroke="#121625" stroke-width="7.52"/>
<path d="M48.26 4C55.7841 4 63.0081 8.43288 68.5106 16.4364C74.0014 24.4233 77.5166 35.6636 77.5166 48.26C77.5166 60.8564 74.0014 72.0966 68.5106 80.0836C63.0081 88.087 55.7841 92.52 48.26 92.52C40.7359 92.52 33.5117 88.087 28.0093 80.0836C22.5187 72.0966 19.0034 60.8564 19.0034 48.26C19.0034 35.6636 22.5187 24.4233 28.0093 16.4364C33.5117 8.43288 40.7359 4 48.26 4Z" stroke="#121625" stroke-width="7.52"/>
<path d="M48.26 92.52C72.7041 92.52 92.52 72.7041 92.52 48.26C92.52 23.8159 72.7041 4 48.26 4C23.8159 4 4 23.8159 4 48.26C4 72.7041 23.8159 92.52 48.26 92.52Z" stroke="#121625" stroke-width="7.52"/>
</svg>
